<?xml version="1.0" encoding="UTF-8"?>
<svg width="361px" height="320px" viewBox="0 0 361 320" version="1.1" xmlns="http://www.w3.org/2000/svg" xmlns:xlink="http://www.w3.org/1999/xlink">
    <!-- Generator: Sketch 49.2 (51160) - http://www.bohemiancoding.com/sketch -->
    <title>Group 10 Copy 4</title>
    <desc>Created with Sketch.</desc>
    <defs></defs>
    <g id="企業APP設計" stroke="none" stroke-width="1" fill="none" fill-rule="evenodd">
        <g id="企業APP設計_1" transform="translate(-1260.000000, -1612.000000)" fill="#FFFFFF">
            <g id="Group-10-Copy-4" transform="translate(1260.000000, 1612.000000)">
                <polygon id="Triangle-Copy-3" points="5.5 309 11 320 0 320"></polygon>
                <polygon id="Triangle-Copy-9" points="5.5 206 11 217 0 217"></polygon>
                <polygon id="Triangle-Copy-14" points="5.5 103 11 114 0 114"></polygon>
                <polygon id="Triangle-Copy-19" points="5.5 0.100000381 11 11.1000004 0 11.1000004"></polygon>
                <polygon id="Triangle-Copy-4" points="93.5 309 99 320 88 320"></polygon>
                <polygon id="Triangle-Copy-10" points="93.5 206 99 217 88 217"></polygon>
                <polygon id="Triangle-Copy-15" points="93.5 103 99 114 88 114"></polygon>
                <polygon id="Triangle-Copy-20" points="93.5 0.100000381 99 11.1000004 88 11.1000004"></polygon>
                <polygon id="Triangle-Copy-5" points="180.5 309 186 320 175 320"></polygon>
                <polygon id="Triangle-Copy-11" points="180.5 206 186 217 175 217"></polygon>
                <polygon id="Triangle-Copy-16" points="180.5 103 186 114 175 114"></polygon>
                <polygon id="Triangle-Copy-21" points="180.5 0.100000381 186 11.1000004 175 11.1000004"></polygon>
                <polygon id="Triangle-Copy-6" points="268.5 309 274 320 263 320"></polygon>
                <polygon id="Triangle-Copy-12" points="268.5 206 274 217 263 217"></polygon>
                <polygon id="Triangle-Copy-17" points="268.5 103 274 114 263 114"></polygon>
                <polygon id="Triangle-Copy-22" points="268.5 0.100000381 274 11.1000004 263 11.1000004"></polygon>
                <polygon id="Triangle-Copy-8" points="355.5 309 361 320 350 320"></polygon>
                <polygon id="Triangle-Copy-13" points="355.5 206 361 217 350 217"></polygon>
                <polygon id="Triangle-Copy-18" points="355.5 103 361 114 350 114"></polygon>
                <polygon id="Triangle-Copy-23" points="355.5 0.100000381 361 11.1000004 350 11.1000004"></polygon>
            </g>
        </g>
    </g>
</svg>